<?xml version="1.0" encoding="UTF-8"?>
<svg id="Layer_2" data-name="Layer 2" xmlns="http://www.w3.org/2000/svg" viewBox="0 0 53 53">
  <defs>
    <style>
      .cls-1 {
        fill: #ee2930;
      }
    </style>
  </defs>
  <g id="Layer_1-2" data-name="Layer 1">
    <g>
      <path class="cls-1" d="M0,36.02l.56-.32c2.95.23,6.32-.29,9.22,0,.45.04.83.38.93.39.13,0,1.83-1,2.23-1.16,1.77-.68,3.76-.67,5.48.15v-6.99s.22-.69.27-.77c.23-.41,1.08-.94,1.55-.94h4.71c-1.58-2.67,1.85-5.13,3.88-2.8h.15c.21-.58,1.12-.93,1.71-.94,2.03-.04,3.01,2,2.12,3.73h4.71c.74,0,1.81.95,1.81,1.71v7.71c2.27-1.18,4.86.52,4.4,3.11-.17.97-1.03,1.67-1.71,2.32-3.4,3.25-7.1,6.22-10.51,9.47-1.01.8-2.14,1.41-3.36,1.82l-2.17.46h-1.66l-2.56-.59-9.08-3.34h-1.6c.02.94.14,2.04-.9,2.46l-9.72.03-.46-.32v-15.22ZM28.36,26.4c.08-1.21-.06-2.79-1.68-2.46-.87.18-1.16,1.29-.68,1.98.1.14.54.48.66.48h1.71ZM29.4,26.4h1.71c.18,0,.59-.49.66-.68.65-1.63-1.48-2.52-2.18-1.15-.29.57-.16,1.21-.19,1.83ZM25.67,27.54h-5.54c-.13,0-.65.45-.57.67l.05,7.31,9.68,3.77c.97.44,1.25,1.32,1.61,2.23l7.27-4.78.02-8.42c.06-.25-.38-.77-.57-.77h-5.54v8.23c0,.1-.55.47-.73.32l-2.52-1.49-2.45,1.49c-.18.15-.73-.22-.73-.32v-8.23ZM30.95,27.54h-4.14v6.94c.62-.11,1.46-1.02,2.02-1.04.68-.03,1.43.91,2.12,1.04v-6.94ZM11.08,47.93h1.5c.25,0,1.14.32,1.45.41,6.12,1.89,11.23,6.16,17.24,1.19,3.86-3.19,7.47-6.99,11.27-10.27.98-1.54-.51-3.24-2.16-2.68l-9.72,6.42c-.72,1.19-1.71,1.86-3.15,1.69l-10-3.04c-.6-.22-.34-1.24.34-1.07,3.42.99,6.81,2.27,10.28,2.99,1.68-.14,2.26-2.19.93-3.21l-11.55-4.5c-2.31-.84-4.5.04-6.4,1.36l-.02,10.7ZM6.94,36.85H1.14v13.66h5.64l.16-.16v-13.51ZM9.94,36.85h-1.97v8.7h1.97v-8.7ZM7.97,50.52h1.81l.16-.16v-3.62l-.16-.16h-1.66l-.16.16v3.78Z"/>
      <path class="cls-1" d="M31.05,0c3.3.97,6.48,2.33,9.73,3.47l1.45.05v-1.5s.16-.28.21-.31l10.1-.06.46.32v15.01l-.56.32c-3.05-.24-6.54.3-9.54,0-.19-.02-.67-.17-.67-.37v-1.92c-1.22.69-2.26,1.14-3.69,1.2-.29.01-.69-.14-1-.07-.08.02-.48,1.16-1.08,1.01l-23.79,5.19c-.62.14-1.15-.22-1.36-.79-.89-4.34-2.01-8.65-2.8-12.99.19-.57.46-.78,1.01-.96,3.7-1.2,8.19-1.5,11.97-2.63,1.8-1.36,3.24-3.2,5.25-4.27l2.24-.71h2.07ZM42.23,4.66h-1.6C36.83,3.65,31.58.04,27.67,1.53c-1.59.61-2.54,1.88-3.86,2.81-.02.19.22.09.33.07,3.01-.4,6.22-1.58,9.26-2.03.74-.05,1.12.19,1.35.9l1.37,6.37c.77.17,1.57.63.65,1.3l-8.67-2.57c-1.76-.19-2.38,2.11-.74,2.82,3.05,1.03,6.07,2.52,9.13,3.5,2.31.74,3.79.38,5.73-1l.02-9.04ZM51.86,2.69h-8.49v13.56h8.49V2.69ZM34.26,6.21l-.62-2.65c-.12-.09-2.77.46-2.86.57-.16.21.23.7.37.88.69.89,1.99,1.52,3.1,1.19ZM29.6,4.35l-16.25,3.52c.29,2.17-.82,4.01-2.8,4.83l1.04,4.9c2.1-.38,3.84,1.05,4.7,2.86l16-3.53.4-2.53-5.89-2.24-.88-.67c-.02.4.08.76.04,1.18-.34,3.28-5.03,3.6-5.86.5s3.1-5.08,5.25-2.71c-.3-2.18,1.17-3.54,3.34-3.08,2.02.44,4.17,1.4,6.19,1.94l-.41-1.92c-.52-.11-1.06,0-1.58-.07-1.44-.19-2.97-1.56-3.29-2.98ZM12.32,8.18l-2.69.52.62,2.9c1.39-.54,2.17-1.93,2.07-3.42ZM22.54,10.58c-1.71.29-1.92,2.89-.18,3.54,2.94,1.1,3.56-4.12.18-3.54ZM36.44,16.04c-.63-.61-1.71-.78-2.53-1.12-.48.45-.37,1.16-.37,1.75l2.9-.62ZM15.11,20.7c-.55-1.33-1.86-2.17-3.31-2.07l.62,2.65,2.7-.58Z"/>
    </g>
  </g>
</svg>